# xmcd
#
# Track frame offsets:
#	150
#	13527
#	25635
#	38142
#	51232
#	62987
#	76897
#	88562
#	101122
#	112410
#	125830
#	137817
#	150207
#	162647
#	176027
#	188680
#
# Disc length: 2659 seconds
#
# Revision: 15
# Processed by: cddbd v1.5.2PL0 Copyright (c) Steve Scherf et al.
# Submitted via: audiograbber 1.83.01
#
DISCID=d70a6110
DTITLE=Martha Reeves And The Vandellas - Greatest Hits
DYEAR=1992
DGENRE=Blues
TTITLE0=I'm Ready For Love
TTITLE1=Dancing In The Street
TTITLE2=(Love Is Like A) Heatwave
TTITLE3=Love (Makes Me Do Foolish Things)
TTITLE4=Quicksand
TTITLE5=My Baby Loves Me
TTITLE6=A Love Like Yours (Don't Come Knocking Everyday)
TTITLE7=Motoring
TTITLE8=Come And Get These Memories
TTITLE9=Nowhere To Run
TTITLE10=Live Wire
TTITLE11=Jimmy Mack
TTITLE12=Wild One
TTITLE13=You've Been In Love Too Long
TTITLE14=Third Finger, Left Hand
TTITLE15=In My Lonely Room
EXTD=
EXTT0=
EXTT1=
EXTT2=
EXTT3=
EXTT4=
EXTT5=
EXTT6=
EXTT7=
EXTT8=
EXTT9=
EXTT10=
EXTT11=
EXTT12=
EXTT13=
EXTT14=
EXTT15=
PLAYORDER=
